<svg width="887" height="232" viewBox="0 0 887 232" fill="none" xmlns="http://www.w3.org/2000/svg">
<path d="M329.194 178.931C322.5 178.931 316.451 177.644 311.044 175.069C305.638 172.495 300.683 168.891 296.178 164.257V169.277C296.178 171.723 295.341 173.782 293.668 175.455C291.994 177.129 289.87 177.965 287.296 177.965C284.85 177.965 282.791 177.129 281.118 175.455C279.444 173.782 278.608 171.723 278.608 169.277V43.9701C278.608 41.3958 279.444 39.2719 281.118 37.5986C282.791 35.9252 284.85 35.0886 287.296 35.0886C289.87 35.0886 291.994 35.9252 293.668 37.5986C295.341 39.2719 296.178 41.3958 296.178 43.9701V91.2739C300.683 86.6401 305.638 83.036 311.044 80.4616C316.451 77.8873 322.5 76.6001 329.194 76.6001C337.045 76.6001 344.511 78.5952 351.591 82.5855C358.67 86.5757 364.462 92.368 368.967 99.9624C373.601 107.557 375.918 116.824 375.918 127.765C375.918 138.706 373.601 147.974 368.967 155.568C364.462 163.163 358.67 168.955 351.591 172.945C344.511 176.936 337.045 178.931 329.194 178.931ZM326.684 162.519C335.823 162.519 343.353 159.559 349.274 153.638C355.323 147.717 358.348 139.093 358.348 127.765C358.348 116.31 355.323 107.685 349.274 101.893C343.353 95.9721 335.823 93.0116 326.684 93.0116C320.376 93.0116 314.649 94.4275 309.5 97.2593C304.351 99.9624 299.91 103.373 296.178 107.492V148.038C299.91 152.157 304.351 155.633 309.5 158.465C314.649 161.168 320.376 162.519 326.684 162.519ZM418.754 177.965C416.308 177.965 414.249 177.129 412.576 175.455C410.902 173.782 410.066 171.723 410.066 169.277V86.447C410.066 84.0014 410.902 81.9419 412.576 80.2685C414.249 78.4665 416.308 77.5655 418.754 77.5655C421.2 77.5655 423.259 78.4665 424.933 80.2685C426.735 81.9419 427.636 84.0014 427.636 86.447V94.7493C431.111 90.1155 435.359 85.9321 440.379 82.1993C445.399 78.4665 451.255 76.6001 457.949 76.6001H458.914C461.36 76.6001 463.355 77.4367 464.899 79.1101C466.573 80.7834 467.409 82.8429 467.409 85.2885C467.409 87.7342 466.573 89.7293 464.899 91.2739C463.226 92.8185 461.102 93.5908 458.528 93.5908H457.563C451.255 93.5908 445.527 95.1998 440.379 98.4178C435.23 101.507 430.982 105.562 427.636 110.582V169.277C427.636 171.723 426.735 173.782 424.933 175.455C423.259 177.129 421.2 177.965 418.754 177.965ZM501.934 58.4509C499.231 58.4509 496.914 57.4855 494.983 55.5547C493.052 53.6239 492.087 51.307 492.087 48.604V47.8316C492.087 45.1286 493.052 42.8116 494.983 40.8809C496.914 38.9501 499.231 37.9847 501.934 37.9847H503.092C505.796 37.9847 508.112 38.9501 510.043 40.8809C511.974 42.8116 512.939 45.1286 512.939 47.8316V48.604C512.939 51.307 511.974 53.6239 510.043 55.5547C508.112 57.4855 505.796 58.4509 503.092 58.4509H501.934ZM502.32 177.965C499.875 177.965 497.815 177.129 496.142 175.455C494.468 173.782 493.632 171.723 493.632 169.277V86.447C493.632 83.8726 494.468 81.7488 496.142 80.0755C497.815 78.4021 499.875 77.5655 502.32 77.5655C504.895 77.5655 507.018 78.4021 508.692 80.0755C510.365 81.7488 511.202 83.8726 511.202 86.447V169.277C511.202 171.723 510.365 173.782 508.692 175.455C507.018 177.129 504.895 177.965 502.32 177.965ZM595.388 178.931C579.684 178.931 567.392 174.49 558.51 165.608C549.757 156.598 545.381 143.984 545.381 127.765C545.381 119.013 546.99 110.775 550.208 103.052C553.426 95.1998 558.446 88.8283 565.268 83.937C572.09 79.0457 580.843 76.6001 591.526 76.6001C601.437 76.6001 609.804 78.917 616.626 83.5508C623.448 88.056 628.597 93.977 632.072 101.314C635.676 108.651 637.478 116.631 637.478 125.255C637.478 127.701 636.642 129.761 634.968 131.434C633.424 133.107 631.3 133.944 628.597 133.944H563.144C564.174 142.568 567.456 149.519 572.991 154.796C578.526 159.945 586.506 162.519 596.932 162.519C602.725 162.519 607.616 162.004 611.606 160.975C615.596 159.816 619.394 158.336 622.998 156.534C624.027 156.019 625.186 155.762 626.473 155.762C628.533 155.762 630.335 156.47 631.879 157.885C633.424 159.301 634.196 161.103 634.196 163.292C634.196 164.836 633.681 166.252 632.651 167.539C631.75 168.698 630.592 169.663 629.176 170.435C624.928 172.881 620.295 174.941 615.275 176.614C610.383 178.158 603.754 178.931 595.388 178.931ZM563.144 119.656H620.101C619.715 112.963 617.978 107.557 614.888 103.438C611.928 99.3188 608.324 96.2939 604.076 94.3631C599.828 92.4324 595.645 91.467 591.526 91.467C587.407 91.467 583.224 92.4324 578.976 94.3631C574.728 96.2939 571.124 99.3188 568.164 103.438C565.203 107.557 563.53 112.963 563.144 119.656ZM686.405 177.965C683.96 177.965 681.9 177.129 680.227 175.455C678.553 173.782 677.717 171.723 677.717 169.277V93.5908H666.325C664.266 93.5908 662.464 92.8829 660.919 91.467C659.503 89.9224 658.795 88.1203 658.795 86.0608C658.795 83.8726 659.503 82.0706 660.919 80.6547C662.464 79.2388 664.266 78.5308 666.325 78.5308H677.717V67.3324C677.717 59.2232 679.133 52.7229 681.965 47.8316C684.925 42.9404 688.658 39.465 693.163 37.4055C697.668 35.2173 702.173 34.1232 706.678 34.1232C709.896 34.1232 712.921 34.5094 715.753 35.2817C718.585 35.9252 721.159 36.8263 723.476 37.9847C724.634 38.4996 725.664 39.4006 726.565 40.6878C727.466 41.8463 727.917 43.1978 727.917 44.7424C727.917 46.5445 727.209 48.2178 725.793 49.7624C724.506 51.307 722.832 52.0793 720.773 52.0793C719.228 52.0793 717.684 51.8863 716.139 51.5001C714.594 51.1139 712.921 50.9209 711.119 50.9209C706.357 50.9209 702.495 52.0793 699.534 54.3963C696.703 56.5845 695.287 61.0896 695.287 67.9116V78.5308H719.421C721.61 78.5308 723.412 79.2388 724.828 80.6547C726.243 82.0706 726.951 83.8726 726.951 86.0608C726.951 88.1203 726.243 89.9224 724.828 91.467C723.412 92.8829 721.61 93.5908 719.421 93.5908H695.287V169.277C695.287 171.723 694.45 173.782 692.777 175.455C691.103 177.129 688.98 177.965 686.405 177.965ZM753.789 177.965C751.343 177.965 749.284 177.129 747.611 175.455C745.937 173.782 745.101 171.723 745.101 169.277V43.9701C745.101 41.3958 745.937 39.2719 747.611 37.5986C749.284 35.9252 751.343 35.0886 753.789 35.0886C756.363 35.0886 758.487 35.9252 760.161 37.5986C761.834 39.2719 762.671 41.3958 762.671 43.9701V169.277C762.671 171.723 761.834 173.782 760.161 175.455C758.487 177.129 756.363 177.965 753.789 177.965ZM824.792 222.373C822.475 222.373 820.479 221.536 818.806 219.863C817.262 218.19 816.489 216.195 816.489 213.878C816.489 212.719 816.682 211.689 817.068 210.788L829.618 178.545L793.32 90.1155C793.191 89.6006 792.998 89.0214 792.741 88.3778C792.612 87.7342 792.548 87.0906 792.548 86.447C792.548 84.0014 793.384 81.9419 795.058 80.2685C796.731 78.4665 798.791 77.5655 801.236 77.5655C803.038 77.5655 804.647 78.0803 806.063 79.1101C807.608 80.1398 808.702 81.427 809.345 82.9716L839.079 156.727L869.392 83.3578C870.165 81.5557 871.194 80.1398 872.481 79.1101C873.897 78.0803 875.571 77.5655 877.501 77.5655C879.947 77.5655 882.007 78.4665 883.68 80.2685C885.353 81.9419 886.19 84.0014 886.19 86.447C886.19 87.6055 885.997 88.6996 885.611 89.7293L832.901 216.388C832.128 218.061 831.099 219.477 829.812 220.635C828.524 221.794 826.851 222.373 824.792 222.373Z" fill="white"/>
<path d="M159.939 5.80908C183.694 5.80924 202.951 25.0656 202.951 48.8198V50.3833C202.951 74.1372 183.694 93.3936 159.94 93.394H144.044C169.994 93.3942 191.031 114.431 191.031 140.381C191.031 172.049 165.359 197.72 133.691 197.72H0L24.6406 5.80908H159.939Z" fill="#10B981"/>
<path d="M83.2709 21.8603C85.0169 19.0347 89.3799 20.4137 89.185 23.7294L85.016 94.5224L126.902 96.9882C129.285 97.1287 130.68 99.7363 129.474 101.797L77.4447 190.685C75.7459 193.588 71.294 192.239 71.4916 188.882L75.9799 112.652L34.2377 110.195C31.821 110.053 30.4324 107.381 31.7045 105.321L83.2709 21.8603Z" fill="#111827"/>
<path d="M97.944 12.9327C99.69 10.1072 104.053 11.4862 103.858 14.8019L99.6892 85.5948L141.575 88.0607C143.958 88.2012 145.353 90.8097 144.147 92.8702L92.1179 181.758C90.4191 184.66 85.9671 183.311 86.1647 179.954L90.653 103.725L48.9108 101.268C46.494 101.125 45.1055 98.4534 46.3776 96.3937L97.944 12.9327Z" fill="#F9FAFB"/>
</svg>
