<svg width="621" height="614" viewBox="0 0 621 614" fill="none" xmlns="http://www.w3.org/2000/svg">
<rect width="620.647" height="613.571" fill="white"/>
<path d="M203.055 447.907C220.471 472.991 246.237 491.484 276.162 499.06H203.055V447.907ZM247.333 388.273C255.796 415.362 280.797 434.996 310.323 434.997C346.808 434.996 376.386 405.018 376.386 368.038C376.386 334.385 351.891 306.531 319.987 301.79V301.836H268.132V257.226H319.08V257.229H319.084C319.376 257.263 319.668 257.3 319.959 257.336H319.987V257.339C374.613 264.172 417.591 312.282 417.592 371.524C417.592 435.529 367.425 486.543 306.602 486.543C259.729 486.543 219.187 456.246 203.055 413.055V329.992C203.088 329.902 203.123 329.812 203.157 329.722V308.591H203.055V257.229H203.157V114.511H247.333V388.273Z" fill="#10B981"/>
</svg>
