<svg width="233" height="417" viewBox="0 0 233 417" fill="none" xmlns="http://www.w3.org/2000/svg">
<path d="M0 361.079C18.8626 388.245 46.769 408.272 79.1787 416.477H0V361.079ZM47.9551 296.492C57.121 325.83 84.1972 347.094 116.175 347.094C155.689 347.094 187.722 314.627 187.722 274.576C187.722 238.129 161.194 207.963 126.642 202.829V202.878H70.4795V154.564H125.658V154.567C125.975 154.604 126.291 154.644 126.607 154.684H126.642V154.688C185.803 162.088 232.35 214.191 232.35 278.353C232.35 347.672 178.018 402.921 112.145 402.921C61.3801 402.921 17.4721 370.109 0 323.332V233.372C0.0365611 233.274 0.0745354 233.177 0.111328 233.079V210.194H0V154.567H0.111328V0H47.9551V296.492Z" fill="#111827"/>
</svg>
