<svg width="318" height="300" viewBox="0 0 318 300" fill="none" xmlns="http://www.w3.org/2000/svg">
<path d="M250.019 0C287.152 3.2986e-05 317.255 30.1022 317.255 67.2354V69.6787C317.255 106.812 287.152 136.915 250.019 136.915H225.171C265.736 136.915 298.621 169.8 298.621 210.365C298.621 259.869 258.491 300 208.987 300H0L38.5176 0H250.019Z" fill="#10B981"/>
<path d="M130.169 25.0918C132.899 20.6744 139.719 22.83 139.414 28.0137L132.898 138.677L198.373 142.533C202.099 142.753 204.28 146.829 202.395 150.05L121.062 289.001C118.406 293.538 111.446 291.43 111.755 286.182L118.771 167.019L53.5197 163.178C49.7414 162.955 47.5703 158.778 49.5598 155.558L130.169 25.0918Z" fill="#111827"/>
<path d="M153.107 11.1358C155.836 6.71867 162.657 8.87507 162.352 14.0586L155.835 124.722L221.311 128.577C225.037 128.797 227.217 132.874 225.331 136.095L143.999 275.046C141.344 279.583 134.384 277.474 134.693 272.227L141.708 153.064L76.4572 149.222C72.6789 148.999 70.5079 144.822 72.4972 141.603L153.107 11.1358Z" fill="#F9FAFB"/>
</svg>
