<svg width="621" height="614" viewBox="0 0 621 614" fill="none" xmlns="http://www.w3.org/2000/svg">
<rect width="620.647" height="613.571" fill="#111827"/>
<path d="M209.292 436.45C226.708 461.534 252.474 480.027 282.399 487.603H209.292V436.45ZM253.57 376.819C262.034 403.907 287.035 423.54 316.56 423.54C353.045 423.54 382.622 393.561 382.623 356.581C382.622 322.928 358.128 295.074 326.224 290.334V290.38H274.368V245.769H325.317V245.772H325.321C325.613 245.806 325.904 245.843 326.196 245.88H326.224V245.883C380.85 252.715 423.828 300.825 423.829 360.067C423.829 424.073 373.662 475.087 312.838 475.087C265.966 475.087 225.424 444.789 209.292 401.599V318.535C209.325 318.445 209.36 318.355 209.394 318.266V297.135H209.292V245.772H209.394V103.055H253.57V376.819Z" fill="#F9FAFB"/>
</svg>
