<svg width="621" height="503" viewBox="0 0 621 503" fill="none" xmlns="http://www.w3.org/2000/svg">
<rect width="620.647" height="502.984" fill="#111827"/>
<path d="M401.714 101.492C438.848 101.492 468.951 131.594 468.951 168.728V171.171C468.951 208.304 438.848 238.407 401.714 238.407H376.867C417.432 238.407 450.317 271.292 450.317 311.857C450.317 361.361 410.187 401.492 360.683 401.492H151.696L190.214 101.492H401.714Z" fill="#10B981"/>
<path d="M281.865 126.584C284.594 122.167 291.415 124.322 291.11 129.506L284.594 240.169L350.069 244.025C353.795 244.245 355.976 248.321 354.091 251.542L272.758 390.493C270.102 395.03 263.142 392.922 263.451 387.674L270.467 268.511L205.216 264.67C201.437 264.447 199.266 260.27 201.256 257.05L281.865 126.584Z" fill="#111827"/>
<path d="M304.803 112.628C307.532 108.211 314.353 110.367 314.048 115.551L307.531 226.214L373.007 230.069C376.732 230.289 378.913 234.366 377.027 237.587L295.695 376.538C293.04 381.075 286.08 378.967 286.388 373.719L293.404 254.556L228.153 250.714C224.375 250.491 222.204 246.315 224.193 243.095L304.803 112.628Z" fill="#F9FAFB"/>
</svg>
